HIERARCHY
ROOT joint_0
{
	OFFSET 0.000000 0.000000 0.000000
	CHANNELS 6 Xposition Yposition Zposition Zrotation Yrotation Xrotation 
	JOINT joint_1
	{
		OFFSET 14.113007 -2.961990 123.953979
		CHANNELS 3 Zrotation Yrotation Xrotation
		JOINT joint_2
		{
			OFFSET 0.764000 -2.434006 113.871948
			CHANNELS 3 Zrotation Yrotation Xrotation
			JOINT joint_3
			{
				OFFSET 0.186996 -2.169998 113.753052
				CHANNELS 3 Zrotation Yrotation Xrotation
				JOINT joint_4
				{
					OFFSET 16.096001 -2.720001 160.853027
					CHANNELS 3 Zrotation Yrotation Xrotation
					JOINT joint_5
					{
						OFFSET 34.392006 -0.188995 92.567017
						CHANNELS 3 Zrotation Yrotation Xrotation
						End Site
						{
							OFFSET 0.000000 0.000000 0.000000
						}
					}
				}
				JOINT joint_6
				{
					OFFSET 9.183998 -36.684006 89.597046
					CHANNELS 3 Zrotation Yrotation Xrotation
					JOINT joint_7
					{
						OFFSET 0.486000 -164.365997 -28.984009
						CHANNELS 3 Zrotation Yrotation Xrotation
						JOINT joint_8
						{
							OFFSET 38.899002 -34.967010 -291.651978
							CHANNELS 3 Zrotation Yrotation Xrotation
							JOINT joint_9
							{
								OFFSET 41.714005 -45.890991 -258.857056
								CHANNELS 3 Zrotation Yrotation Xrotation
								End Site
								{
									OFFSET 0.000000 0.000000 0.000000
								}
							}
						}
					}
				}
				JOINT joint_10
				{
					OFFSET 8.867004 33.650002 90.817993
					CHANNELS 3 Zrotation Yrotation Xrotation
					JOINT joint_11
					{
						OFFSET 0.018997 164.299999 -29.368042
						CHANNELS 3 Zrotation Yrotation Xrotation
						JOINT joint_12
						{
							OFFSET 29.440994 30.887997 -293.216919
							CHANNELS 3 Zrotation Yrotation Xrotation
							JOINT joint_13
							{
								OFFSET 46.174011 54.490005 -256.422058
								CHANNELS 3 Zrotation Yrotation Xrotation
								End Site
								{
									OFFSET 0.000000 0.000000 0.000000
								}
							}
						}
					}
				}
			}
		}
	}
	JOINT joint_14
	{
		OFFSET -2.264000 -89.466995 -116.150024
		CHANNELS 3 Zrotation Yrotation Xrotation
		JOINT joint_15
		{
			OFFSET -16.400993 -17.452988 -493.781982
			CHANNELS 3 Zrotation Yrotation Xrotation
			JOINT joint_16
			{
				OFFSET -50.497004 -13.404022 -424.754013
				CHANNELS 3 Zrotation Yrotation Xrotation
				JOINT joint_17
				{
					OFFSET 198.546007 -19.341003 -89.309000
					CHANNELS 3 Zrotation Yrotation Xrotation
					End Site
					{
						OFFSET 0.000000 0.000000 0.000000
					}
				}
			}
		}
	}
	JOINT joint_18
	{
		OFFSET -0.867996 96.016006 -110.817993
		CHANNELS 3 Zrotation Yrotation Xrotation
		JOINT joint_19
		{
			OFFSET -10.130997 24.658998 -493.645020
			CHANNELS 3 Zrotation Yrotation Xrotation
			JOINT joint_20
			{
				OFFSET -48.871004 19.434999 -424.714005
				CHANNELS 3 Zrotation Yrotation Xrotation
				JOINT joint_21
				{
					OFFSET 195.579996 24.926001 -94.327003
					CHANNELS 3 Zrotation Yrotation Xrotation
					End Site
					{
						OFFSET 0.000000 0.000000 0.000000
					}
				}
			}
		}
	}
}
MOTION
Frames: 7
Frame Time: 0.016667
60.658000 -151.439000 1141.650020 -0.353786 -4.341674 -1.509853 0.356601 -0.416492 1.877138 0.372299 0.069452 -0.318465 0.368963 -0.070547 0.265817 -0.068348 -0.364064 0.179938 0.000000 0.000000 0.000000 -1.467612 0.761222 -0.123346 0.010765 0.503070 1.036826 -0.252111 0.816842 -0.668844 0.000000 0.000000 0.000000 -1.704426 1.074069 -0.950701 0.415000 1.452262 1.483950 0.210475 0.680980 0.365859 0.000000 0.000000 0.000000 9.119870 1.464909 1.922753 9.041691 2.544662 2.892117 9.215920 -1.703202 3.949551 0.000000 0.000000 0.000000 8.886245 0.738857 1.421270 8.888508 1.031865 2.139153 8.751785 0.957082 4.086194 0.000000 0.000000 0.000000 
60.689000 -151.147990 1141.691040 -0.349849 -4.221807 -1.508676 0.318384 -0.354850 1.944972 0.333642 0.059843 -0.348657 0.330414 -0.072260 0.285513 -0.062384 -0.410832 0.163786 0.000000 0.000000 0.000000 -1.576797 0.685377 -0.065658 0.014492 0.406942 0.960852 -0.249565 0.770468 -0.704297 0.000000 0.000000 0.000000 -1.208035 1.027027 -1.045494 0.401170 1.313548 1.517736 0.207681 0.689030 0.341324 0.000000 0.000000 0.000000 9.110099 1.328168 1.874970 9.023072 2.566891 2.910071 9.202882 -1.729623 3.941402 0.000000 0.000000 0.000000 8.867618 0.599919 1.396555 8.877764 1.064899 2.127407 8.736880 0.930195 4.082778 0.000000 0.000000 0.000000 
60.815000 -150.779010 1141.785030 -0.350484 -4.039867 -1.506293 0.263436 -0.259738 2.039762 0.278016 0.046074 -0.394677 0.274892 -0.076732 0.315512 -0.055764 -0.506158 0.145587 0.000000 0.000000 0.000000 -1.730918 0.588252 -0.008810 0.023521 0.280661 0.876913 -0.238154 0.682553 -0.730266 0.000000 0.000000 0.000000 -0.535506 0.985295 -1.147064 0.376974 1.146697 1.536038 0.193295 0.665780 0.289293 0.000000 0.000000 0.000000 9.101736 1.131336 1.808894 9.002856 2.584944 2.932841 9.188972 -1.762148 3.932386 0.000000 0.000000 0.000000 8.840112 0.403569 1.362807 8.860896 1.095073 2.103714 8.713580 0.893251 4.076812 0.000000 0.000000 0.000000 
61.489000 -150.494000 1141.962040 -0.376910 -3.770997 -1.496866 0.204800 -0.128531 2.104495 0.218060 0.024557 -0.432071 0.215555 -0.061789 0.338629 -0.041836 -0.861681 0.106225 0.000000 0.000000 0.000000 -1.856411 0.554843 -0.074600 0.048300 0.220973 0.870597 -0.170714 0.432285 -0.585635 0.000000 0.000000 0.000000 -0.147059 1.104586 -1.065392 0.326878 1.187596 1.414570 0.107070 0.396866 0.127118 0.000000 0.000000 0.000000 9.104659 0.904040 1.727790 8.995907 2.524273 2.940556 9.179388 -1.763927 3.928644 0.000000 0.000000 0.000000 8.830123 0.189326 1.321133 8.858291 1.034923 2.058859 8.704488 0.884780 4.074542 0.000000 0.000000 0.000000 
62.850000 -150.325000 1142.290040 -0.430227 -3.370771 -1.479734 0.138817 0.096966 2.121078 0.148872 -0.009207 -0.457552 0.147839 -0.013439 0.351366 -0.017240 -1.729505 0.035266 0.000000 0.000000 0.000000 -1.968106 0.620179 -0.389196 0.110704 0.256975 1.022432 0.007928 -0.164083 -0.131494 0.000000 0.000000 0.000000 -0.295597 1.534905 -0.623301 0.212045 1.624564 0.991758 -0.136834 -0.462896 -0.214589 0.000000 0.000000 0.000000 9.121037 0.614498 1.614219 9.002867 2.361458 2.950420 9.176341 -1.726314 3.931886 0.000000 0.000000 0.000000 8.849631 -0.056180 1.265353 8.879619 0.825044 1.983413 8.720575 0.926970 4.078685 0.000000 0.000000 0.000000 
64.758000 -150.239000 1142.699950 -0.509282 -2.888957 -1.455798 0.068810 0.370569 2.103348 0.074216 -0.050963 -0.474301 0.074989 0.044515 0.357154 0.009339 -2.866633 -0.040441 0.000000 0.000000 0.000000 -2.060167 0.749951 -0.805615 0.187008 0.358834 1.222173 0.245240 -0.921189 0.502266 0.000000 0.000000 0.000000 -0.699023 2.127391 -0.039612 0.070476 2.264436 0.449062 -0.451940 -1.594021 -0.636618 0.000000 0.000000 0.000000 9.148229 0.300934 1.485695 9.023026 2.118391 2.945262 9.178111 -1.654514 3.940841 0.000000 0.000000 0.000000 8.886952 -0.312608 1.201272 8.914984 0.522493 1.886807 8.752106 1.001905 4.086436 0.000000 0.000000 0.000000 
67.255000 -150.294010 1143.014040 -0.636569 -2.434720 -1.420204 0.017165 0.515050 2.045832 0.019920 -0.071351 -0.470100 0.021521 0.069374 0.348376 0.031303 -3.720353 -0.098267 0.000000 0.000000 0.000000 -2.009613 0.928267 -1.048628 0.219392 0.541501 1.288915 0.423379 -1.408876 1.060057 0.000000 0.000000 0.000000 -1.042400 2.594060 0.328813 0.000168 2.780934 0.156172 -0.645163 -2.192268 -1.014683 0.000000 0.000000 0.000000 9.190199 0.089834 1.394991 9.069530 1.790013 2.852936 9.184647 -1.533461 3.957387 0.000000 0.000000 0.000000 8.935033 -0.496716 1.144300 8.957405 0.215185 1.789163 8.791753 1.081157 4.097245 0.000000 0.000000 0.000000 
